<svg width="816" height="876" viewBox="0 0 816 876" fill="none" xmlns="http://www.w3.org/2000/svg">
<g clip-path="url(#clip0_48_74)">
<path d="M250.834 152.364C286.043 150.407 320.696 183.311 343.5 207.177C352.348 216.437 359.755 226.692 367.417 236.933C371.714 235.081 381.736 233.021 386.547 232.071C421.099 225.353 456.77 227.183 490.453 237.404C498.709 227.985 506.669 217.51 515.827 208.274C536.965 187.37 561.228 167.726 590.608 160.259C634.175 149.186 638.673 197.214 637.985 228.039C637.121 266.687 627.001 304.845 610.42 339.682C607.046 346.772 603.768 354.671 599.478 361.218C615.38 377.111 617.298 375.494 619.872 399.256C620.44 404.496 613.135 410.364 609.306 415.09C626.859 428.175 635.654 438.95 635.496 461.712C637.637 461.895 639.893 462.154 642.013 462.385C656.73 463.99 658.811 466.45 658.403 480.658C663.417 479.729 668.478 479.076 673.564 478.7C732.759 474.451 750.66 530.004 716.22 571.822C694.073 598.714 654.52 602.875 621.491 604.845C619.881 606.482 618.186 608.433 616.67 610.177C609.506 618.417 601.422 625.308 592.714 631.833C621.379 632.545 650.251 633.306 678.857 635.361C688.501 636.054 735.625 639.287 740.232 646.15C740.85 647.07 740.954 647.891 740.709 648.963C739.996 652.078 735.096 654.871 732.629 656.559C712.62 668.195 660.082 675.745 636.163 678.406C591.331 683.014 546.337 685.885 501.283 687.012C493.753 687.255 486.292 687.928 478.744 688.11C420.617 689.31 362.465 688.388 304.404 685.346C274.956 683.935 118.953 676.634 109.611 648.41C109.754 647.288 109.928 646.696 110.754 645.875C120.472 636.204 208.971 632.262 225.46 632.119C223.299 630.947 221.202 629.659 219.179 628.261C189.046 607.638 169.824 573.585 163.16 538.056C161.273 527.991 156.596 484.776 161.978 477.487C166.64 471.173 195.374 466.713 203.484 465.648C203.495 464.971 203.511 464.293 203.534 463.615C204.193 443.637 212.43 428.656 229.468 418.173C231.759 416.764 240.529 412.635 241.767 411.163C248.746 402.871 231.889 395.322 232.441 386.707C232.75 381.886 233.844 380.773 235.749 377.207C242.13 365.259 251.939 361.902 260.308 353.635C256.952 348.818 253.916 342.504 251.245 337.233C238.653 312.735 229.788 286.495 224.946 259.379C220.061 232.647 217.225 187.607 233.121 163.377C237.473 156.745 243.173 153.702 250.834 152.364Z" fill="#421F07"/>
<path d="M498.972 251.26L499.354 250.855C502.756 247.195 505.869 242.123 508.956 238.044C527.395 213.685 548.703 193.47 575.934 179.494C616.242 158.806 624.543 181.237 625.115 217.641C625.909 268.118 609.198 309.332 582.667 351.412C572.862 346.121 566.265 343.013 555.262 340.281C546.946 307.652 522.502 288.47 488.003 296.439C466.392 301.431 453.817 318.645 449.591 339.773C448.603 339.389 445.359 338.205 444.631 337.746C431.857 332.966 415.658 333.577 402.753 337.773C401.679 336.286 403.502 320.758 403.863 317.621C406.717 292.804 402.67 266.706 403.35 242.247C418.835 240.755 434.613 239.977 450.097 242.098C458.679 243.044 467.193 244.528 475.589 246.542C483.167 248.291 491.246 251.075 498.972 251.26Z" fill="#EB9C40"/>
<path d="M403.35 242.247C418.835 240.755 434.613 239.977 450.097 242.098C443.215 275.589 440.343 303.372 444.631 337.746C431.857 332.966 415.658 333.577 402.753 337.773C401.679 336.286 403.502 320.758 403.863 317.621C406.717 292.804 402.67 266.706 403.35 242.247Z" fill="#FEFAF0"/>
<path d="M560 283C562.069 281.48 563.065 276.717 563.934 274.707C568.452 263.264 571.599 247.968 573.876 235.832C576.254 223.16 572.859 215.513 585.827 206.62C588.6 203.995 597.332 200.098 599.69 205.596C606.601 221.71 601.533 241.611 598.071 258.94C596.804 265.281 584.551 307.6 574.003 305.826C570.412 305.222 563.758 290.511 558.41 285.863L560 283Z" fill="#FEFAF0"/>
<path d="M534.253 262.548C541.377 251.64 554.811 228.774 564.5 220C562.034 225.458 551.773 245.34 549.272 250.754C546.653 256.422 543.192 262.154 540.97 267.978C545.669 272.786 550.33 277.083 555.273 282.207L558.411 285.863C558.23 286.249 557.996 286.872 557.722 287.222C557.147 287.958 556.722 288.087 555.794 288.097C551.222 288.143 528.162 267.45 524.592 263.196C525.662 261.894 526.839 260.612 527.963 259.348L534.253 262.548Z" fill="#421F07"/>
<path d="M401.738 350.481C408.993 345.648 424.149 344.592 432.46 346.514C438.448 347 444.575 349.83 449.29 353.504C451.208 361.927 453.266 369.51 458.453 376.594C470.94 393.648 493.517 402.87 514.323 397.999C524.433 395.584 533.697 390.469 541.128 383.2C550.448 370.772 551.237 368.339 555.328 353.244C560.237 353.781 565.296 354.312 570.036 355.718C582.612 359.45 595.263 369.603 603.219 379.853C596.658 378.738 588.327 377.068 581.839 376.315C585.045 379.5 590.111 382.79 592.352 385.291C597.579 387.991 603.727 390.638 607.404 395.229C606.347 398.456 605.825 399.85 603.381 402.428C598.124 403.062 592.941 402.619 588.074 403.191C589.748 405.984 591.864 408.261 593.995 410.712C586.973 407.997 583.408 407.734 575.779 407.52C570.96 407.783 566.16 408.328 561.404 409.153C538.699 413.924 522.808 427.78 516.823 450.483C511.01 449.503 500.733 449.488 494.518 449.332C482.34 448.996 470.16 448.743 457.979 448.571C442.28 448.335 426.741 447.712 410.982 447.625C381.565 447.67 352.151 448.148 322.748 449.06C314.694 428.596 310.673 423.022 290.253 412.553C277.071 408.258 269.403 407.122 255.691 408.673C257.847 406.757 265.143 402.145 263.49 399.23C260.522 397.659 253.87 398.243 250.463 398.566C248.932 394.937 247.015 391.534 245.146 388.068C251.593 383.961 258.803 381.679 265.957 378.902C268.029 376.652 271.672 375.188 272.257 372.369L271.47 371.718C267.14 370.665 258.4 371.957 254.061 372.871C262.531 362.402 278.847 353.113 291.965 350.016C294.816 361.399 296.191 366.582 302.561 376.628C304.539 379.169 306.713 381.95 309.047 384.158C332.095 405.961 370.452 401.474 389.043 376.142C394.158 369.173 395.401 362.027 397.249 353.819C398.877 352.258 399.672 351.361 401.738 350.481Z" fill="#FEFAF0"/>
<path d="M555.329 353.244C560.238 353.781 565.297 354.312 570.037 355.718C582.613 359.45 595.263 369.603 603.219 379.853C596.658 378.738 588.327 377.068 581.839 376.315C585.045 379.5 590.112 382.79 592.353 385.291L590.576 385.228C586.113 384.139 583.188 383.725 578.679 383.146C564.23 381.603 555.545 378.813 541.129 383.2C550.449 370.772 551.238 368.339 555.329 353.244Z" fill="#EB9C40"/>
<path d="M254.061 372.871C262.531 362.402 278.847 353.113 291.965 350.016C294.816 361.399 296.191 366.582 302.561 376.628C293.385 376.8 275.206 376.663 266.545 378.922L265.957 378.902C268.029 376.652 271.672 375.188 272.257 372.369L271.47 371.718C267.14 370.665 258.4 371.957 254.061 372.871Z" fill="#EB9C40"/>
<path d="M399.173 402.082C393.949 395.269 387.856 384.718 397.254 378.045C405.993 371.839 422.781 371.837 433.02 373.275C440.915 374.384 457.628 378.273 454.981 389.56C453.027 397.892 445.387 406.046 438.233 410.427C434.727 412.63 429.674 415.336 426.729 417.612C436.999 438.246 468.188 425.347 475.592 407.178C478.174 408.176 482.092 409.787 482.683 412.776C481.648 413.829 478.638 416.553 477.996 417.379C476.221 419.659 475.374 421.618 473.167 423.916C465.634 431.756 456.994 436.801 445.951 436.883C436.664 436.952 431.675 434.416 423.798 430.107C408.71 436.478 396.242 440.87 381.55 430.265C374.029 424.836 371.254 420.605 366.043 413.06C367.878 410.246 368.868 408.949 371.774 406.967C378.608 415.726 384.936 426.094 397.047 427.269C405.848 428.122 417.169 425.445 421.385 417.038C419.994 416.283 417.297 414.716 415.914 414.251C408.779 410.156 405.131 407.554 399.173 402.082Z" fill="#421F07"/>
<path d="M419.218 381.678C423.334 381.429 437.42 381.372 439.798 384.953C438.551 386.504 434.439 386.473 432.484 386.636C426.683 386.895 414.818 388.26 410.369 384.703L410.446 384.015C412.305 382.464 416.741 382.067 419.218 381.678Z" fill="#FEFAF0"/>
<path d="M272.413 344.609C268.921 336.688 264.877 328.807 261.368 320.794C246.556 287.137 234.207 252.878 234.246 215.581C234.265 197.401 234.553 157.205 263.716 165.686C291.921 173.888 317.699 197.455 336.257 219.516C343.443 228.059 349.797 236.363 355.795 245.868C352.046 247.63 340.479 251.734 342.599 257.121C344.982 257.421 349.295 255.609 351.644 254.701C368.471 248.195 385.325 243.796 403.348 242.247C402.668 266.706 406.715 292.804 403.861 317.621C403.5 320.758 401.677 336.286 402.751 337.773L397.794 340.502C394.633 326.067 389.453 316.1 378.249 306.227C361.574 291.532 334.686 290.557 316.287 302.456C304.232 310.252 296.402 323.785 293.503 337.619C285.024 339.638 280.352 341.221 272.413 344.609Z" fill="#EB9C40"/>
<path d="M262.537 196.378C269.882 195.846 279.446 204.361 282.48 210.699C284.011 213.898 283.898 221.087 284.538 224.933C287.708 244.004 289.156 261.321 300.321 277.716C296.291 281.772 290.988 289.196 287.384 294.011C285.884 296.002 284.135 297.939 282.494 299.827C278.473 296.279 276.114 292.67 273.756 287.86C269.97 280.071 266.744 272.021 264.104 263.771C260.262 251.632 248.167 203.244 262.537 196.378Z" fill="#FEFAF0"/>
<path d="M293.51 220.567C305.834 230.63 313.684 246.645 324.85 258.847C329.232 256.705 336.493 251.502 338.614 258.224C337.879 261.619 319.715 272.955 315.513 276.012C310.66 279.726 306.396 283.83 301.338 287.273C302.986 274.77 308.575 271.693 318.068 263.925C312.683 254.742 307.652 246.01 302.596 236.647C299.548 231.001 296.354 226.798 293.51 220.567Z" fill="#421F07"/>
<path d="M497.679 304.021C521.388 301.561 542.603 318.789 545.064 342.501C547.526 366.214 530.302 387.433 506.594 389.897C482.882 392.361 461.663 375.133 459.201 351.417C456.739 327.702 473.967 306.482 497.679 304.021Z" fill="#EB9C40"/>
<path d="M488.274 330.783C511.242 330.473 514.231 365.731 497.965 376.598C495.279 378.393 493.539 378.966 490.538 379.942C467.229 384.158 462.17 334.625 488.274 330.783Z" fill="#421F07"/>
<path d="M491.108 336.586C498.575 339.357 497.286 347.344 490.599 351.026C482.653 349.619 484.366 340.41 491.108 336.586Z" fill="#FEFAF0"/>
<path d="M341.07 303.542C364.49 301.16 385.401 318.228 387.763 341.653C390.125 365.078 373.042 385.978 349.619 388.321C326.223 390.661 305.356 373.6 302.996 350.203C300.637 326.806 317.678 305.921 341.07 303.542Z" fill="#EB9C40"/>
<path d="M359.222 329.475C383.934 330.081 384.207 377.511 359.451 379.071C334.868 377.117 332.366 333.327 359.222 329.475Z" fill="#421F07"/>
<path d="M361.628 337.272C368.423 337.935 366.604 346.005 362.502 349.924C355.061 348.273 356.914 341.319 361.628 337.272Z" fill="#FEFAF0"/>
<path d="M261.357 422.783C279.984 421.88 297.727 428.563 305.634 446.665C309.236 454.911 311.43 471.3 300.918 475.868C299.645 476.36 295.699 477.46 294.505 476.424C290.518 472.968 289.493 464.741 287.744 459.811C286.651 464.022 285.542 469.066 282.937 472.549C278.182 478.905 272.956 483.054 265.166 484.51C264.452 484.558 263.736 484.581 263.021 484.578C243.069 484.457 248.991 466.229 244.309 461.538L243.698 461.57C241.246 464.631 241.905 475.812 235.597 475.849C213.19 475.979 213.545 451.203 224.591 438.353C234.063 427.335 247.879 423.814 261.357 422.783Z" fill="#FEFAF0"/>
<path d="M576.732 421.498C594.933 421.035 617.245 433.364 621.926 452.094C624.83 463.714 619.498 471.08 608.24 473.986C599.986 476.117 597.93 463.696 596.94 458.239C595.014 463.354 594.768 468.886 592.936 474.057C589.065 484.982 579.084 485.261 569.98 481.291C569.652 481.111 569.326 480.926 569.003 480.736C562.256 476.765 560.967 472.521 559.166 465.489C558.796 468.624 558.433 471.558 557.921 474.671C556.502 476.5 552.5 478.5 547.5 477.5H546.5C543.5 477 544 477 542.5 476.5C529.552 474.811 529.425 458.304 532.954 449.076C540.531 429.267 556.454 422.768 576.732 421.498Z" fill="#FEFAF0"/>
<path d="M194.188 493.105L223.876 497.518C224.025 507.574 225.184 515.224 226.544 525.019C230.151 552.354 240.094 577.469 257.967 598.651C262.895 604.492 270.79 610.232 275.226 615.916C271.514 614.357 266.498 613.272 262.528 612.259C213.727 599.815 194.334 537.613 194.188 493.105Z" fill="#FEFAF0"/>
<path d="M319.62 484.479C370.392 486.311 420.74 488.127 471.579 485.617C486.521 484.879 505.979 484.832 520.413 481.852C525.193 486.655 529.59 489.242 536.197 490.638C537.822 490.95 539.301 491.15 540.833 491.77C539.931 492.753 539.292 492.755 537.911 493.248C531.28 494.629 524.181 494.868 517.473 495.673C505.399 497.121 493.441 498.195 481.3 498.971C457.988 500.594 434.634 501.55 411.267 501.838C381.004 501.75 350.761 500.287 320.631 497.453C312.792 496.681 303.664 496.667 295.99 494.837C296.965 494.318 299.228 493.89 300.382 493.628C308.839 492.092 312.738 489.212 319.62 484.479Z" fill="#FEFAF0"/>
<path d="M675.848 507.013C697.002 506.102 703.983 528.485 695.073 544.662C687.802 557.865 673.104 566.06 659.149 570.333C653.465 572.193 645.708 573.075 639.633 573.916C644.815 559.233 650.115 544.31 652.861 528.934C653.484 525.447 654.272 518.601 656.322 516.023C660.706 510.511 669.102 507.851 675.848 507.013Z" fill="#FEFAF0"/>
<path d="M628.201 493.283C628.468 497.156 627.489 502.004 627.038 505.93C622.813 542.76 608.709 582.048 579.067 605.958C574.678 609.499 568.176 612.756 563.205 615.501C563.28 614.486 571.483 605.268 572.729 603.606C596.195 572.321 606.97 536.903 609.111 498.025C616.162 496.608 621.402 495.556 628.201 493.283Z" fill="#FEFAF0"/>
<path d="M265.83 644.979L265.436 643.774C266.578 642.863 266.837 643.242 268.79 643.317C289.742 647.663 310.26 651.509 331.62 653.349C396.743 658.958 462.826 657.488 527.509 647.921C534.326 646.913 542.772 644.683 549.405 644.142C550.651 644.287 551.991 644.229 552.857 644.888C552.314 645.858 551.806 646.004 551.126 646.761C525.8 654.623 494.93 658.684 468.607 661.13C401.953 667.324 330.162 665.007 265.83 644.979Z" fill="#FEFAF0"/>
<path d="M574.233 507.454C574.942 507.279 575.051 507.348 575.799 507.359C576.682 508.335 576.708 511.813 576.816 513.211C577.739 525.763 576.641 538.382 573.565 550.587C567.048 576.899 549.987 603.953 526.539 618.044C525.248 618.759 525.234 618.813 523.729 619.175L523.58 618.731C525.15 616.749 527.165 614.817 528.971 612.999C544.391 597.476 558.057 574.91 562.765 553.422C565.879 539.21 565.904 522.963 565.709 508.456C568.532 508.225 571.417 507.816 574.233 507.454Z" fill="#FEFAF0"/>
<path d="M536.197 490.638C543.274 490.639 549.218 488.962 555.758 488.845C550.05 490.938 544.021 492.886 537.911 493.248C539.292 492.755 539.931 492.753 540.833 491.77C539.301 491.15 537.822 490.95 536.197 490.638Z" fill="#CABA97"/>
<path d="M251.064 639.04C255.121 639.48 264.525 642.114 268.788 643.317C266.835 643.242 266.576 642.863 265.434 643.774L265.828 644.979C260.677 643.626 255.717 641.631 251.064 639.04Z" fill="#CABA97"/>
<path d="M549.404 644.142L560.575 641.701L561.891 643.418C558.665 644.466 554.342 645.968 551.125 646.761C551.805 646.004 552.313 645.858 552.856 644.888C551.99 644.229 550.65 644.287 549.404 644.142Z" fill="#E5D7C3"/>
<path d="M286.736 491.53C291.466 492.454 295.551 493.497 300.381 493.628C299.227 493.89 296.964 494.318 295.989 494.837C292.527 494.797 289.634 493.166 286.736 491.53Z" fill="#CABA97"/>
<path d="M560.574 641.701C564.121 640.751 567.852 639.682 571.428 638.923C568.232 640.85 565.377 642.066 561.89 643.418L560.574 641.701Z" fill="#CABA97"/>
<path d="M754.925 719.095C760.805 718.894 770.893 718.838 776.537 719.738C778.015 720.852 778.461 721.078 779.523 722.542C780.097 725.336 780.142 730.547 780.292 733.56C780.592 739.044 780.925 744.526 781.291 750.006C782.63 771.069 784.216 791.91 784.62 813.141C784.854 825.435 778.565 822.154 768.908 822.596C767.327 822.669 760.346 822.292 759.844 821.026C757.895 816.104 758.312 806.155 758.155 800.661L757.191 764.204C754.098 771.68 745.17 802.553 738.996 805.555C735.577 807.217 725.04 807.774 721.496 806.304C717.249 804.543 706.054 770.44 703.786 764.78C704.295 770.395 704.376 774.68 704.405 780.294C704.5 793.265 704.256 809.312 703.827 822.264C697.743 823.467 689.048 824.154 682.946 823.251C681.898 823.096 680.337 822.812 679.777 821.807C678.692 819.859 678.526 816.019 678.458 813.806C678.129 803.144 680.368 726.631 682.534 722.485C683.227 721.156 684.859 720.358 686.227 719.94C690.383 718.669 703.325 718.718 706.967 720.83C708.543 721.744 709.526 723.588 710.36 725.147C714.664 733.193 717.789 742.335 721.179 750.799C724.654 759.476 728.695 768.245 731.187 777.249C735.714 764.83 740.175 752.225 745.197 740.002C747.341 734.783 750.73 721.958 754.925 719.095Z" fill="#421F07"/>
<path d="M377.83 721.772C382.162 721.555 393.224 720.965 395.953 724.449C397.663 730.153 397.281 757.918 396.954 765.213C396.152 783.113 398.671 806.937 395.826 824.152C388.53 824.672 381.984 824.95 374.706 823.939C368.771 818.81 342.792 775.684 338.447 767.275C339.674 774.979 340.837 817.761 338.728 823.116C337.617 824.194 336.829 824.242 335.329 824.632C333.561 824.743 331.791 824.83 330.02 824.893C325.289 825.076 318.761 825.595 315.16 822.26C313.831 817.512 314.254 786.469 314.204 778.883L314.013 747.681C313.999 743.606 313.042 726.755 316.013 724.299C319.626 721.313 331.237 722.341 335.981 722.998C339.186 725.532 341.928 729.942 344.014 733.461C352.866 748.393 362.835 762.788 371.604 777.747C371.733 760.705 370.827 743.319 371.268 726.265C371.366 722.472 374.809 722.131 377.83 721.772Z" fill="#421F07"/>
<path d="M53.3956 714.883C58.8924 714.547 70.1618 714.172 74.5468 717.132C75.8464 720.675 75.2811 754.486 75.3565 760.502C80.6937 751.743 95.8775 723.48 102.574 718.157C106.741 718.203 110.954 718.514 115.12 718.589C119.369 718.666 132.276 718.509 127.14 726.293C117.225 741.32 107.744 756.55 97.361 771.282C98.4896 773.065 99.8998 774.915 101.125 776.664C108.287 786.893 115.133 797.337 122.042 807.74C123.938 810.699 133.475 823.591 128.719 824.928C124.562 826.096 103.489 827.399 100.508 823.372C91.4738 811.168 83.2726 795.952 75.6387 783.145C75.792 792.887 76.2877 814.96 75.325 823.948C69.2672 825.024 53.7093 825.62 49.1495 821.63C48.5891 820.097 48.3735 818.091 48.3682 816.45C48.2677 785.328 48.0979 754.211 47.8824 723.09C47.8463 717.88 48.4202 716.464 53.3956 714.883Z" fill="#421F07"/>
<path d="M611.599 720.433C617.075 720.088 632.378 719.476 636.798 722.37C639.021 723.827 643.008 738.072 644.157 741.7C646.35 748.466 648.58 755.221 650.845 761.963C656.469 778.992 662.578 795.84 667.41 813.12C668.332 816.418 668.787 818.865 669.101 822.242C668.748 823.002 668.084 823.777 667.234 823.932C641.762 828.57 643.819 822.6 638.125 804.967L631.604 804.832C623.437 804.498 614.973 804.802 606.786 805.029C605.495 809.325 601.095 821.618 598.84 824.912C594.143 825.456 576.41 826.549 574.068 822.671C574.156 820.819 574.492 818.651 575.094 816.896C580.365 801.525 585.867 785.964 590.966 770.549L600.759 741.01C602.6 735.352 604.151 728.269 607.024 723.199C608.095 721.309 609.62 720.89 611.599 720.433ZM622.431 748.858C618.479 759.851 615.654 771.017 612.854 782.347L621.495 782.402L631.438 782.383C630.672 779.496 623.03 749.632 622.431 748.858Z" fill="#421F07"/>
<path d="M264.689 720.901C272.77 719.779 285.674 721.324 293.256 724.423C302.109 728.042 298.554 740.119 294.809 746.617C284.044 745.496 265.319 740.436 257.198 749.485C247.198 760.627 247.776 790.243 258.724 800.96C263.332 805.471 270.205 804.904 276.11 804.545C276.463 798.454 276.241 791.235 276.017 785.151L262.457 784.352C262.051 778.964 262.293 772.62 262.569 767.231C270.591 766.399 292.155 765.821 299.788 767.333C302.564 774.081 301.189 810.139 301.007 819.724C295.692 823.891 287.916 825.455 281.512 826.396C248.665 831.232 226.355 816.972 223.325 782.837C220.589 752.016 230.687 724.363 264.689 720.901Z" fill="#421F07"/>
<path d="M476.967 98.8635C487.542 98.2116 494.036 104.24 502.485 109.732C508.099 113.382 515.294 122.114 515.809 128.996C518.386 163.452 446.359 158.701 430.234 182.21C422.291 193.79 427.324 201.744 429.629 213.446C429.649 213.614 429.669 213.782 429.688 213.95C415.373 211.91 398.3 194.173 401.05 179.614C407.391 146.056 459.88 151.375 482.453 135.223C495.714 125.734 483.245 114.61 475.845 107.274C472.94 104.354 473.517 101.16 476.967 98.8635Z" fill="#CABA97"/>
<path d="M525.742 127.779C533.864 128.357 538.198 133.608 544.076 138.65C547.981 142.001 552.575 149.383 552.268 154.677C550.731 181.185 496.349 170.249 481.678 186.519C474.451 194.533 477.477 201.103 478.044 210.25C478.042 210.38 478.04 210.51 478.038 210.64C467.341 207.632 456.138 192.387 459.711 181.577C467.951 156.659 507.392 166.042 526.228 156.032C537.293 150.151 528.925 140.411 524.033 134.071C522.117 131.552 522.881 129.178 525.742 127.779Z" fill="#CABA97"/>
<path d="M485.878 722.227C491.717 722.198 520.361 721.126 523.361 723.481C524.922 724.706 525.588 726.94 525.869 728.815C526.381 732.247 526.883 739.522 524.602 742.351C521.497 746.202 507.476 744.558 502.233 745.073C502.175 759.956 502.202 774.839 502.313 789.722C502.422 799.548 502.59 809.365 502.402 819.189C502.286 825.269 497.378 824.758 492.583 824.86C486.768 824.868 476.516 826.455 476.257 818.694C475.974 810.198 476.024 801.738 476.027 793.238L475.968 745.487C471.526 745.34 455.853 745.961 452.977 743.407C452.085 742.615 451.885 740.531 451.787 739.403C451.469 735.734 450.767 726.569 453.295 723.824C455.55 721.376 481.235 722.255 485.878 722.227Z" fill="#421F07"/>
<path d="M420.566 723.048C426.032 722.725 435.844 722.006 439.912 725.595C440.802 727.493 441.296 731.471 441.311 733.628C441.471 756.681 440.772 779.737 440.915 802.801C440.958 809.767 440.993 817.071 440.62 823.992C438.524 824.541 436.759 824.671 434.622 824.894C430.539 825.393 420.874 825.558 417.289 823.851C413.846 822.213 414.844 810.792 414.914 807.085C415.392 781.611 414.033 756.145 414.226 730.67C414.269 725.047 415.133 723.935 420.566 723.048Z" fill="#421F07"/>
<path d="M545.583 722.617C549.807 722.277 558.398 721.793 561.941 724.288C563.409 725.321 563.664 732.527 563.649 734.527C563.431 762.509 563.426 790.499 563.421 818.482C563.42 824.668 562.634 824.277 556.722 824.735C553.811 824.802 537.871 825.992 537.59 821.507C536.723 807.655 537.453 793.468 537.398 779.554L537.147 741.879C537.152 737.413 536.991 732.932 537.051 728.469C537.126 722.963 541.414 722.957 545.583 722.617Z" fill="#421F07"/>
<path d="M528.12 131.609L528 131.5C528.01 131.53 528.051 131.566 528.12 131.609Z" fill="#CABA97"/>
<path d="M166.938 720.454C194.979 718.182 211.36 732.838 214.504 760.418C216.567 778.517 214.524 799.68 203.519 814.951C197.744 822.965 188.673 825.976 179.298 827.17C150.383 828.906 135.67 815.34 131.884 786.84C128.17 758.878 133.5 724.632 166.938 720.454ZM171.373 743.078C160.121 745.042 159.665 754.415 158.774 763.92C157.95 772.702 158.16 781.828 159.852 790.474C161.75 800.175 165.629 804.624 175.889 804.246C178.922 803.387 182.495 802.012 183.932 798.774C189.541 786.129 189.14 767.681 186.089 754.373C184.313 746.627 179.088 742.708 171.373 743.078Z" fill="#421F07"/>
</g>
<defs>
<clipPath id="clip0_48_74">
<rect width="816" height="876" fill="white"/>
</clipPath>
</defs>
</svg>
